<?xml version="1.0" encoding="utf-8"?>
<!-- Generator: Adobe Illustrator 23.1.0, SVG Export Plug-In . SVG Version: 6.00 Build 0)  -->
<svg version="1.1" id="Layer_1" xmlns="http://www.w3.org/2000/svg" xmlns:xlink="http://www.w3.org/1999/xlink" x="0px" y="0px"
	 viewBox="0 0 21 22" style="enable-background:new 0 0 21 22;" xml:space="preserve">
<style type="text/css">
	.st0{fill:#CACACA;}
</style>
<path class="st0" d="M19.3,2h-2.8V0.6c0-0.4-0.3-0.7-0.7-0.7c-0.4,0-0.7,0.3-0.7,0.7V2h-3.9V0.6c0-0.4-0.3-0.7-0.7-0.7
	c-0.4,0-0.7,0.3-0.7,0.7V2H5.9V0.6C5.9,0.3,5.6,0,5.3,0C4.9,0,4.6,0.3,4.6,0.6V2H1.8C0.8,2,0,2.8,0,3.9v16.3c0,1,0.8,1.8,1.8,1.8
	h17.5c1,0,1.7-0.8,1.7-1.8V3.9C21,2.8,20.2,2,19.3,2z M19.7,20.2c0,0.2-0.2,0.5-0.4,0.5c0,0,0,0,0,0H1.8c-0.2,0-0.4-0.2-0.4-0.5V3.9
	c0-0.2,0.2-0.5,0.4-0.5h2.8v1.4c0,0.4,0.3,0.7,0.7,0.7c0.4,0,0.7-0.3,0.7-0.7V3.4h3.9v1.4c0,0.4,0.3,0.7,0.7,0.7
	c0.4,0,0.7-0.3,0.7-0.7V3.4h3.9v1.4c0,0.4,0.3,0.7,0.7,0.7c0.4,0,0.7-0.3,0.7-0.7V3.4h2.8c0.2,0,0.4,0.2,0.4,0.5L19.7,20.2
	L19.7,20.2z"/>
<path class="st0" d="M4.6,8.2h2.6v2.1H4.6V8.2z M4.6,11.7h2.6v2.1H4.6V11.7z M4.6,15.1h2.6v2.1H4.6V15.1z M9.2,15.1h2.6v2.1H9.2
	V15.1z M9.2,11.7h2.6v2.1H9.2V11.7z M9.2,8.2h2.6v2.1H9.2V8.2z M13.8,15.1h2.6v2.1h-2.6V15.1z M13.8,11.7h2.6v2.1h-2.6V11.7z
	 M13.8,8.2h2.6v2.1h-2.6V8.2z"/>
</svg>
