
<svg version="1.1"xmlns="http://www.w3.org/2000/svg" xmlns:xlink="http://www.w3.org/1999/xlink" x="0px" y="0px"
	 viewBox="0 0 17 15" style="enable-background:new 0 0 17 15;" xml:space="preserve">
<path  d="M10.9,0.1c1.7-0.5,3,0.3,3.6,1.2c0.7-0.2,1.3-0.5,2-0.7c0,0.7-0.3,1.3-0.9,1.8C16.4,2.6,17,1.9,17,1.9
	c-0.2,1-1,1.8-1.6,2C15.2,10.7,12.2,15.1,5.3,15H4.9c-0.4,0-4.2-0.5-4.9-1.9c2.3,0.2,3.9-0.4,4.7-1.2c-1-0.3-2.7-0.5-3-2.9
	c0.3,0.1,0.6,0.2,1.2,0.1C1.7,8.2,0.4,7.5,0.4,5.3c0.3,0.3,1.1,0.5,1.3,0.5c-0.7-0.2-2-3.4-0.9-5C2.7,2.7,4.6,4.5,8,4.6
	C8.3,2.3,9.2,0.8,10.9,0.1z"/>
</svg>